<?xml version="1.0" encoding="UTF-8" standalone="no"?>
<!-- Created with Inkscape (http://www.inkscape.org/) -->

<svg
   width="449.92398mm"
   height="206.62634mm"
   viewBox="0 0 449.92397 206.62634"
   version="1.1"
   id="svg1"
   xmlns="http://www.w3.org/2000/svg"
   xmlns:svg="http://www.w3.org/2000/svg">
  <defs
     id="defs1" />
  <g
     id="layer1"
     transform="translate(121.57607,-47.360358)">
    <path
       style="fill:#000000"
       d="m 218.14895,236.25964 h -0.66146 v -4.63021 -4.63021 h 0.66146 0.66146 v 0.4048 0.40479 l 0.77184,-0.57064 0.77184,-0.57064 0.90564,0.16989 0.90563,0.1699 0.57781,0.61504 0.5778,0.61504 0.2647,0.90227 0.2647,0.90226 -0.16354,1.00137 -0.16353,1.00137 -0.6526,0.77557 -0.6526,0.77557 -0.93201,0.17485 -0.932,0.17484 -0.77184,-0.57064 -0.77184,-0.57065 v 1.72772 1.72771 z m 2.47254,-3.70417 h 0.75274 l 0.47865,-0.5289 0.47865,-0.52891 0.0254,-1.16299 0.0254,-1.163 -0.50403,-0.55706 -0.50403,-0.55706 h -0.75274 -0.75275 l -0.52916,0.52917 -0.52917,0.52917 v 1.19062 1.19063 l 0.52917,0.52916 0.52916,0.52917 z m 5.20038,1.12309 -0.66146,0.12645 v -3.37205 -3.37205 l 0.66146,-0.12645 0.66146,-0.12644 v 0.49248 0.49247 l 0.52916,-0.52917 0.52917,-0.52916 h 0.66146 0.66146 v 0.66146 0.66145 h -0.75274 -0.75275 l -0.43788,0.48386 -0.43788,0.48385 v 2.26343 2.26343 z m 7.12818,0.12754 -1.30735,0.12433 -0.73289,-0.57855 -0.73289,-0.57855 -0.39159,-0.75725 -0.39159,-0.75725 v -0.81538 -0.81539 l 0.36036,-0.8514 0.36036,-0.8514 0.54515,-0.48544 0.54515,-0.48544 1.01272,-0.12024 1.01272,-0.12023 0.64698,0.34169 0.64697,0.34168 0.44519,0.79316 0.44519,0.79316 0.15799,0.85989 0.158,0.8599 h -2.52476 -2.52476 l 0.18251,0.59531 0.1825,0.59531 0.2646,0.33073 0.2646,0.33073 h 0.93895 0.93896 l 0.445,-0.40272 0.445,-0.40272 0.59775,0.22112 0.59774,0.22112 -0.64061,0.74475 -0.6406,0.74474 z m -0.5136,-4.16105 h 1.71979 v -0.37797 -0.37798 l -0.41577,-0.41577 -0.41577,-0.41578 h -0.89214 -0.89214 l -0.41188,0.58804 -0.41188,0.58804 v 0.20571 0.20571 z m 6.73966,4.23334 h -1.09182 l -0.83954,-0.84506 -0.83955,-0.84506 0.66146,-0.17278 0.66146,-0.17278 0.54622,0.48867 0.54622,0.48867 h 0.46336 0.46336 l 0.51178,-0.27389 0.51177,-0.27389 v -0.37826 -0.37825 l -0.46302,-0.23907 -0.46302,-0.23907 -1.00695,-0.18187 -1.00694,-0.18188 -0.51441,-0.51441 -0.51441,-0.51441 v -0.74762 -0.74763 l 0.60803,-0.57122 0.60803,-0.57122 0.79939,-0.15988 0.7994,-0.15987 0.95253,0.39799 0.95252,0.39799 0.27935,0.52197 0.27935,0.52197 -0.65324,0.12488 -0.65325,0.12487 -0.29866,-0.35986 -0.29866,-0.35987 h -0.90195 -0.90195 l -0.15359,0.40025 -0.15359,0.40024 0.30942,0.37283 0.30941,0.37282 1.03532,0.17491 1.03531,0.17492 0.66925,0.52643 0.66924,0.52643 v 0.62061 0.62062 l -0.16435,0.4283 -0.16435,0.4283 -0.74855,0.38709 -0.74855,0.38709 z m 7.36254,-0.0106 -0.87303,-0.0106 -0.72428,-0.39299 -0.72428,-0.39299 -0.4002,-0.7739 -0.4002,-0.7739 v -1.21691 -1.2169 l 0.40135,-0.77613 0.40136,-0.77613 0.77613,-0.40136 0.77613,-0.40135 h 0.78659 0.78659 l 0.80631,0.67846 0.80631,0.67847 0.27085,0.97518 0.27085,0.97518 0.001,0.33073 10e-4,0.33073 h -2.50524 -2.50524 l 0.16421,0.46302 0.1642,0.46302 0.39767,0.46302 0.39766,0.46302 h 0.82617 0.82616 l 0.56654,-0.39682 0.56654,-0.39682 0.41837,0.16055 0.41837,0.16054 v 0.0823 0.0823 l -0.16435,0.4283 -0.16435,0.4283 -0.74855,0.38709 -0.74855,0.38709 z m -0.0793,-4.22274 h 1.71979 v -0.20571 -0.20571 l -0.41188,-0.58804 -0.41187,-0.58804 h -0.82406 -0.82406 l -0.48386,0.43789 -0.48385,0.43788 v 0.35587 0.35586 z m 5.02708,4.17267 -0.66146,0.0547 v -3.43662 -3.43662 h 0.66146 0.66146 v 0.43788 0.43789 l 0.46302,-0.41727 0.46302,-0.41727 0.69911,-0.17444 0.69911,-0.17443 0.81209,0.41994 0.81208,0.41995 0.29173,0.99065 0.29172,0.99064 -0.0831,2.11005 -0.0831,2.11004 -0.60586,-7.2e-4 -0.60586,-7.3e-4 -0.0556,-2.39959 -0.0556,-2.39958 -0.36313,-0.43734 -0.36312,-0.43734 h -0.74635 -0.74635 l -0.41188,0.58804 -0.41188,0.58804 v 2.26467 2.26467 z m 9.45886,0.03 -0.46302,-0.0307 -0.52917,-0.12392 -0.52917,-0.12392 -0.33073,-0.42512 -0.33073,-0.42512 v -2.33068 -2.33069 h -0.52916 -0.52917 v -0.52916 -0.52917 h 0.52917 0.52916 v -0.92604 -0.92604 h 0.66146 0.66146 v 0.92604 0.92604 h 0.66146 0.66146 v 0.52917 0.52916 h -0.67216 -0.67216 l 0.0768,2.18282 0.0768,2.18281 0.59532,0.0846 0.59531,0.0846 v 0.64305 0.64306 z m 3.87941,0.0307 h -0.96378 l -0.69714,-0.54837 -0.69714,-0.54837 v -0.65965 -0.65965 l 0.28588,-0.53417 0.28588,-0.53417 0.89625,-0.37448 0.89624,-0.37448 h 1.06684 1.06683 v -0.3463 -0.34631 l -0.35943,-0.49154 -0.35942,-0.49154 h -0.82779 -0.82778 l -0.48727,0.44097 -0.48727,0.44097 h -0.44219 -0.44219 v -0.24982 -0.24983 l 0.63855,-0.74236 0.63855,-0.74236 h 1.47077 1.47077 l 0.60266,0.602 0.60266,0.602 0.0896,2.90373 0.0896,2.90373 h -0.68486 -0.68487 v -0.41188 -0.41188 l -0.58804,0.41188 -0.58804,0.41188 z m 0.30266,-1.05834 h 0.44292 l 0.69714,-0.54837 0.69714,-0.54837 v -0.50996 -0.50996 h -0.77653 -0.77652 l -0.68547,0.26061 -0.68546,0.26061 -0.1685,0.43911 -0.1685,0.43911 0.49043,0.35861 0.49044,0.35861 z m 7.3273,1.05444 -0.59531,-0.004 -0.66146,-0.33397 -0.66146,-0.33397 -0.0757,-2.57255 -0.0757,-2.57255 h -0.51959 -0.51958 v -0.4983 -0.49831 l 0.52916,-0.13838 0.52917,-0.13838 v -0.81852 -0.81852 h 0.66146 0.66146 v 0.92604 0.92604 h 0.66146 0.66145 v 0.52917 0.52916 h -0.67215 -0.67216 l 0.0768,2.18282 0.0769,2.18281 0.59531,0.0846 0.59531,0.0846 v 0.64305 0.64306 z m 2.76692,-0.1272 -0.60651,0.0443 -0.14124,-0.22853 -0.14124,-0.22853 0.0603,-3.10151 0.0603,-3.10152 0.0858,-0.16295 0.0858,-0.16296 0.67544,0.12912 0.67544,0.12912 -0.0738,3.31957 -0.0738,3.31956 z m 5.18372,0.13011 -0.87303,-9.9e-4 -0.83262,-0.5077 -0.83262,-0.5077 -0.32274,-0.97789 -0.32273,-0.9779 0.13429,-1.19143 0.13429,-1.19144 0.78119,-0.78118 0.78118,-0.78119 1.03363,-0.12303 1.03363,-0.12304 0.65351,0.34495 0.65352,0.34495 0.60325,0.89516 0.60326,0.89517 v 1.04537 1.04536 l -0.43256,0.91154 -0.43255,0.91154 -0.74493,0.38522 -0.74493,0.38522 z m 0.053,-1.32193 h 1.02832 l 0.41188,-0.58804 0.41188,-0.58803 v -0.96379 -0.96378 l -0.54837,-0.69714 -0.54837,-0.69714 h -0.75534 -0.75535 l -0.54837,0.69714 -0.54837,0.69714 v 0.96378 0.96379 l 0.41188,0.58803 0.41188,0.58804 z m 5.15937,1.32292 h -0.66146 v -3.43959 -3.43958 h 0.66146 0.66146 v 0.39688 0.39687 l 0.19844,-0.008 0.19844,-0.008 0.51359,-0.38846 0.51359,-0.38846 h 0.8875 0.88749 l 0.64944,0.64943 0.64943,0.64944 v 2.79015 2.79015 h -0.66146 -0.66146 v -2.38125 -2.38125 l -0.52917,-0.52917 -0.52916,-0.52917 h -0.4089 -0.40891 l -0.64943,0.64944 -0.64943,0.64943 v 2.26098 2.26099 z m -252.412494,-0.47878 -0.529167,0.12502 -0.793443,-0.21472 -0.793443,-0.21472 -0.331036,-0.45272 -0.331036,-0.45272 v -2.85985 -2.85985 h 0.661458 0.661459 v 2.59292 2.59292 l 0.3175,0.3175 0.3175,0.3175 h 0.699826 0.699826 l 0.437882,-0.48386 0.437882,-0.48385 v -2.42656 -2.42657 h 0.661459 0.661458 v 3.43959 3.43958 h -0.661458 -0.661459 v -0.43788 -0.43788 l -0.46302,0.40057 -0.463021,0.40056 z m 8.334375,0.0486 -0.661458,0.13482 -0.396875,-0.15143 -0.396875,-0.15143 -0.463021,-0.40336 -0.463021,-0.40335 v 0.43788 0.43788 h -0.661458 -0.661459 v -4.63021 -4.6302 h 0.661459 0.661458 v 1.5875 1.58749 l 0.198438,-0.008 0.198437,-0.008 0.513591,-0.38846 0.51359,-0.38847 h 0.816601 0.8166 l 0.615987,0.43146 0.615987,0.43145 0.368926,0.88297 0.368926,0.88296 v 0.81075 0.81074 l -0.374775,0.89697 -0.374776,0.89696 -0.617412,0.39954 -0.617412,0.39953 z m -0.55097,-1.15732 h 0.733539 l 0.449191,-0.49635 0.449192,-0.49635 0.148955,-0.91791 0.148955,-0.9179 -0.431642,-0.8347 -0.431642,-0.83471 h -1.036536 -1.036536 l -0.411878,0.58804 -0.411878,0.58804 v 0.96378 0.96378 l 0.54837,0.69714 0.54837,0.69714 z m 14.161443,1.25062 -1.307348,0.12434 -0.732891,-0.57855 -0.73289,-0.57855 -0.391589,-0.75725 -0.391588,-0.75725 v -0.78967 -0.78966 l 0.282207,-0.74483 0.282208,-0.74483 0.553858,-0.59126 0.553857,-0.59126 0.881987,-0.16546 0.881988,-0.16546 0.602316,0.15117 0.602317,0.15117 0.590047,0.54971 0.590048,0.54972 v 0.38656 0.38657 h -0.629062 -0.629061 l -0.329377,-0.39687 -0.329377,-0.39688 h -0.74215 -0.74215 l -0.54837,0.69714 -0.54837,0.69714 v 0.85468 0.85468 l 0.54837,0.69714 0.54837,0.69714 h 0.915143 0.915142 l 0.152295,-0.39688 0.152295,-0.39687 h 0.617536 0.617536 l 0.151687,0.24543 0.151687,0.24544 -0.614662,0.71458 -0.614661,0.71459 z m 5.821513,0.0723 h -0.83979 l -0.711303,-0.55951 -0.711302,-0.55951 0.08031,-0.93556 0.08031,-0.93556 0.66521,-0.49438 0.66521,-0.49438 1.385311,-0.16407 1.385311,-0.16407 v -0.63313 -0.63313 l -0.571256,-0.21132 -0.571256,-0.21132 -0.641103,0.12256 -0.641104,0.12255 -0.138865,0.36188 -0.138865,0.36187 h -0.589053 -0.589054 l -0.162618,-0.16262 -0.162618,-0.16261 0.396002,-0.60438 0.396002,-0.60437 0.785846,-0.32551 0.785845,-0.32551 1.092167,0.14649 1.092168,0.14649 0.552394,0.5524 0.552395,0.55239 0.09951,2.90716 0.09951,2.90715 h -0.690727 -0.690728 v -0.39687 -0.39688 l -0.198437,0.008 -0.198438,0.008 -0.513591,0.38846 -0.51359,0.38846 z m 0.419038,-1.06637 0.404149,0.008 0.588039,-0.41188 0.588038,-0.41187 v -0.68028 -0.68027 l -1.111352,0.17772 -1.111352,0.17771 -0.343857,0.28537 -0.343856,0.28538 v 0.35133 0.35133 l 0.463021,0.26969 0.463021,0.26968 z m 15.369023,1.05578 -0.956506,-0.0106 -0.724278,-0.39299 -0.724278,-0.39299 -0.400201,-0.7739 -0.400201,-0.77391 v -1.2169 -1.2169 l 0.401353,-0.77614 0.401354,-0.77613 0.776132,-0.40135 0.776132,-0.40136 0.740744,0.004 0.740743,0.004 0.653517,0.33068 0.653517,0.33068 0.603254,0.89517 0.603254,0.89517 v 0.89541 0.89541 l -0.364813,0.87312 -0.364813,0.87312 -0.729202,0.57359 -0.729202,0.57359 z m -0.02226,-1.31232 h 1.036536 l 0.40367,-0.78061 0.403669,-0.78061 v -0.77121 -0.77121 l -0.54837,-0.69714 -0.54837,-0.69714 h -0.891835 -0.891836 l -0.411878,0.58804 -0.411877,0.58804 v 1.07288 1.07288 l 0.411877,0.58804 0.411878,0.58804 z m 85.402532,1.21864 -1.14095,0.099 -0.52917,-0.23073 -0.52916,-0.23072 -0.48689,-0.54146 -0.48689,-0.54146 -0.24608,-1.09522 -0.24608,-1.09522 0.27494,-1.02107 0.27495,-1.02107 0.80905,-0.68077 0.80906,-0.68078 h 0.91888 0.91888 l 0.74334,0.3844 0.74334,0.3844 0.28926,0.74008 0.28926,0.74008 0.0787,0.79375 0.0787,0.79375 -2.43534,0.0759 -2.43534,0.0759 0.16045,0.45325 0.16046,0.45326 0.39766,0.46302 0.39767,0.46302 h 0.79805 0.79806 l 0.46489,-0.42072 0.4649,-0.42073 0.54812,0.17397 0.54813,0.17397 v 0.20063 0.20064 l -0.64498,0.60593 -0.64499,0.60593 z m -0.47949,-4.12906 h 1.55627 l 0.16215,-0.26236 0.16215,-0.26237 -0.66368,-0.66368 -0.66367,-0.66367 h -0.55322 -0.55322 l -0.66368,0.66367 -0.66367,0.66368 0.16215,0.26237 0.16215,0.26236 z m 12.97186,4.22529 -0.93332,-0.008 -0.47769,-0.27789 -0.47769,-0.27789 -0.2396,-0.63021 -0.2396,-0.6302 0.26744,-0.76718 0.26744,-0.76718 0.63763,-0.29053 0.63764,-0.29052 1.33357,-0.17691 1.33357,-0.1769 v -0.48898 -0.48898 l -0.62575,-0.41001 -0.62574,-0.41 -0.67147,0.25529 -0.67147,0.25529 -0.17361,0.28091 -0.17361,0.2809 h -0.64584 -0.64585 v -0.24983 -0.24983 l 0.63855,-0.74236 0.63855,-0.74235 h 1.4568 1.45681 l 0.68277,0.64143 0.68277,0.64143 v 2.8643 2.86429 h -0.66145 -0.66146 v -0.41187 -0.41188 l -0.58804,0.41188 -0.58804,0.41187 z m 0.39687,-1.07118 0.53644,0.0209 0.58804,-0.41188 0.58804,-0.41187 v -0.64646 -0.64646 l -0.46302,0.001 -0.46302,0.001 -0.99219,0.27554 -0.99219,0.27554 v 0.62698 0.62697 l 0.33073,0.13345 0.33073,0.13346 z m -151.891308,0.81464 h -0.648255 v -4.63021 -4.6302 h 1.655393 1.655392 l 0.900517,0.25826 0.900516,0.25826 0.61504,0.5778 0.615041,0.57781 0.157764,0.84095 0.157764,0.84096 -0.395898,0.94751 -0.395897,0.94752 -0.617712,0.34555 -0.617711,0.34556 -1.5875,0.13876 -1.5875,0.13876 -0.07935,1.52136 -0.07935,1.52135 z m 2.042891,-4.49792 h 1.368229 l 0.483854,-0.43788 0.483855,-0.43788 v -0.70217 -0.70218 l -0.357226,-0.48853 -0.357225,-0.48853 -1.494858,-0.12397 -1.494858,-0.12397 v 1.75256 1.75255 z m 20.989062,4.49792 h -0.661458 v -4.7625 -4.7625 h 0.661458 0.661459 v 4.7625 4.7625 z m 3.175,0 h -0.661458 v -3.43962 -3.43959 h 0.661458 0.661459 v 3.43959 3.43958 z m 18.876407,0 h -0.987026 l -0.411878,-0.58804 -0.411878,-0.58803 v -2.33398 -2.33398 l -0.432967,0.0778 -0.432966,0.0777 -0.07716,-0.49277 -0.07715,-0.49277 0.510122,-0.1334 0.510122,-0.1334 v -0.89519 -0.89518 h 0.661458 0.661459 v 0.92604 0.92604 h 0.661458 0.661458 v 0.61633 0.61632 l -0.595312,-0.021 -0.595313,-0.021 -0.07823,1.9427 -0.07823,1.94271 0.309066,0.3724 0.309065,0.3724 h 0.480326 0.480326 l -0.03986,0.52916 -0.03986,0.52917 z m 3.282447,4e-5 -0.727604,5e-5 0.0477,-3.37348 0.0477,-3.37348 0.679908,-0.0837 0.679907,-0.0837 v 3.45715 3.45716 z m 10.384896,-4e-5 H 81.22708 v -3.43962 -3.43959 h 0.661459 0.661458 v 0.57018 0.57017 l 0.5503,-0.49801 0.5503,-0.49802 h 1.065281 1.065281 l 0.633377,0.73635 0.633378,0.73634 v 2.63108 2.63108 h -0.661459 -0.661458 v -2.26635 -2.26635 l -0.273892,-0.51178 -0.273893,-0.51177 h -0.901729 -0.90173 l -0.411878,0.58804 -0.411878,0.58804 v 2.19008 2.19009 z m 49.741665,-0.13229 h -0.66146 v -4.56406 -4.56406 h 2.12981 2.1298 l 0.77277,0.39961 0.77277,0.39961 0.27242,0.50904 0.27243,0.50903 v 1.1845 1.1845 l -0.80905,0.68077 -0.80905,0.68077 0.94134,1.68328 0.94135,1.68328 v 0.17301 0.17301 h -0.74134 -0.74134 l -0.91231,-1.71756 -0.91231,-1.71756 -0.99218,-0.002 -0.99219,-0.002 v 1.65364 1.65365 z m 1.9255,-4.63021 h 1.26405 l 0.58804,-0.41188 0.58804,-0.41187 v -0.76375 -0.76374 l -0.58804,-0.41188 -0.58804,-0.41188 h -1.26405 -1.26404 v 1.5875 1.5875 z m 8.15814,4.7625 h -1.21175 l -0.83862,-0.7493 -0.83861,-0.74931 -0.12802,-1.54375 -0.12802,-1.54375 0.46467,-0.86284 0.46467,-0.86284 0.78082,-0.32343 0.78082,-0.32342 0.79562,0.0226 0.79562,0.0226 0.66324,0.43457 0.66324,0.43457 0.37478,0.89697 0.37477,0.89696 v 0.53767 0.53766 h -2.38125 -2.38124 v 0.50996 0.50997 l 0.69713,0.54837 0.69714,0.54837 h 0.46418 0.46417 l 0.60718,-0.49166 0.60717,-0.49167 0.48047,0.12565 0.48047,0.12565 v 0.348 0.34799 l -0.76845,0.54719 -0.76844,0.54718 z m -0.0295,-4.23333 h 1.71979 v -0.26459 -0.26458 l -0.52916,-0.52917 -0.52917,-0.52916 h -0.60259 -0.60258 l -0.58804,0.41188 -0.58804,0.41187 v 0.38188 0.38187 z m 6.74688,4.23333 h -0.79375 l -0.52917,-0.52917 -0.52917,-0.52916 v -2.38129 -2.38125 h -0.52916 -0.52917 v -0.52917 -0.52917 h 0.52917 0.52916 v -0.92604 -0.92604 h 0.66146 0.66146 v 0.92604 0.92604 h 0.66146 0.66146 v 0.52917 0.52917 h -0.66146 -0.66146 v 2.12234 2.12234 l 0.66146,0.30138 0.66146,0.30138 v 0.48669 0.4867 z m 3.04271,0 h -0.66142 v -3.43962 -3.43959 h 0.66145 0.66146 v 0.41188 0.41188 l 0.58804,-0.41188 0.58804,-0.41188 h 0.69819 0.69818 l -0.12644,0.66146 -0.12645,0.66146 h -0.7479 -0.7479 l -0.41188,0.58804 -0.41188,0.58804 v 2.19008 2.19009 z m 5.02708,0 h -0.66142 v -3.43962 -3.43959 h 0.66146 0.66146 v 3.43959 3.43958 z m 12.05966,0 h -0.72289 l -1.23661,-3.25488 -1.23662,-3.25488 v -0.20228 -0.20227 l 0.7121,0.0837 0.71209,0.0837 0.79883,2.44739 0.79883,2.4474 h 0.1591 0.15909 l 0.761,-2.38125 0.761,-2.38125 h 0.73733 0.73732 l -0.81535,2.18281 -0.81535,2.18281 -0.39349,1.12448 -0.39349,1.12448 z m 12.01742,0 h -0.66146 v -4.63021 -4.6302 h 0.66146 0.66146 v 4.6302 4.63021 z m 94.87709,-7.60252 -0.53368,0.13956 -0.29616,-0.35685 -0.29616,-0.35685 0.0916,-0.47573 0.0916,-0.47573 h 0.65783 0.65784 l 0.0804,0.69302 0.0804,0.69302 z m -225.864738,-0.17434 -0.245681,0.0599 -0.330729,-0.13229 -0.330729,-0.1323 V 224.72 224.07229 l 0.417391,-0.16017 0.417391,-0.16017 0.43802,0.43802 0.43802,0.43802 -0.279001,0.44231 -0.279001,0.44231 z m 21.91199,-0.20823 -0.596495,0.0847 -0.159416,-0.41544 -0.159417,-0.41543 0.159417,-0.41543 0.159416,-0.41543 0.596495,0.0847 0.596496,0.0847 v 0.66146 0.66146 z m 84.998578,0.0476 h -0.29104 l -0.3175,-0.3175 -0.3175,-0.3175 v -0.33465 -0.33465 l 0.51079,-0.27336 0.51079,-0.27337 0.41525,0.41525 0.41525,0.41525 v 0.19276 0.19277 l -0.3175,0.3175 -0.3175,0.3175 z m -106.146667,-4.51469 -1.009582,-0.0168 -0.637455,-0.25487 -0.637455,-0.25488 -0.346318,-0.45596 -0.346317,-0.45595 -0.0084,-0.1676 -0.0084,-0.16759 0.621247,-0.11876 0.621247,-0.11876 0.59869,0.48479 0.598689,0.48479 h 0.464174 0.464174 l 0.697139,-0.54837 0.69714,-0.54837 v -0.74135 -0.74135 l -1.031926,0.51055 -1.031926,0.51056 -0.931869,-0.38936 -0.93187,-0.38936 -0.391482,-0.61741 -0.391483,-0.61741 -0.174423,-0.83776 -0.174424,-0.83775 0.287122,-1.06629 0.287121,-1.06629 0.690761,-0.54335 0.690762,-0.54335 h 1.067964 1.067965 l 0.483854,0.43788 0.483854,0.43788 v -0.43788 -0.43788 h 0.661458 0.661459 l -0.0059,3.9026 -0.0059,3.9026 -0.457137,0.56435 -0.457138,0.56434 -0.577918,0.29556 -0.577919,0.29555 z m 0.01612,-3.95197 h 0.52769 l 0.612365,-0.57529 0.612365,-0.57529 v -1.0613 -1.06131 l -0.575287,-0.61237 -0.575287,-0.61236 h -0.50044 -0.500441 l -0.490583,0.26255 -0.490583,0.26255 -0.293714,0.88997 -0.293714,0.88996 0.284438,0.76571 0.284438,0.76572 0.435531,0.33073 0.435532,0.33073 z m 25.535608,3.96875 h -0.764438 v -0.64389 -0.64388 l 0.722734,-0.0837 0.722735,-0.0837 0.244706,-0.70009 0.244706,-0.70009 -1.343085,-3.33481 -1.343086,-3.3348 h 0.737396 0.737397 l 0.828873,2.19613 0.828874,2.19613 v 0.31741 0.31741 l 0.198437,-0.009 0.198438,-0.009 0.807334,-2.43886 0.807334,-2.43885 0.71402,-0.0837 0.71402,-0.0837 v 0.11865 0.11865 l -1.604036,4.1984 -1.604037,4.1984 -0.541942,0.46302 -0.541941,0.46303 z m -137.856761,-2.52055 -0.88788,0.10111 -0.52917,-0.13961 -0.52917,-0.13961 -0.59531,-0.54888 -0.59531,-0.54887 v -0.35076 -0.35075 h 0.62906 0.62906 l 0.32938,0.39687 0.32938,0.39688 h 0.86124 0.86125 l 0.32938,-0.39688 0.32938,-0.39687 -0.31222,-0.37619 -0.31221,-0.3762 -1.03531,-0.17491 -1.03531,-0.17492 -0.66925,-0.52642 -0.66925,-0.52643 v -0.88764 -0.88763 l 0.69714,-0.54837 0.69714,-0.54837 h 1.11926 1.11927 l 0.69714,0.54837 0.69714,0.54837 v 0.37767 0.37767 h -0.50773 -0.50772 l -0.81013,-0.46302 -0.81012,-0.46302 -0.46809,0.29294 -0.46809,0.29294 -0.085,0.43175 -0.085,0.43175 0.61415,0.24092 0.61415,0.24091 1.13666,0.30543 1.13665,0.30543 0.28599,0.62768 0.28599,0.62768 -0.17007,0.67763 -0.17008,0.67762 -0.62927,0.41231 -0.62927,0.41232 z m 6.64401,0.0261 -1.18189,0.0993 -0.39688,-0.15904 -0.39687,-0.15904 -0.59532,-0.54161 -0.59531,-0.54161 v -0.18761 -0.1876 l 0.56183,-0.14692 0.56183,-0.14692 0.69494,0.49888 0.69494,0.49888 0.70983,-0.14568 0.70983,-0.14568 0.15093,-0.39331 0.15092,-0.3933 -0.13804,-0.22336 -0.13804,-0.22335 -1.43409,-0.4169 -1.4341,-0.41691 -0.41309,-0.4131 -0.4131,-0.4131 v -0.88793 -0.88794 l 0.69714,-0.54837 0.69714,-0.54837 h 1.11926 1.11926 l 0.69714,0.54837 0.69714,0.54837 v 0.37767 0.37767 h -0.50773 -0.50772 l -0.77063,-0.44228 -0.77063,-0.44228 -0.44744,0.17169 -0.44744,0.1717 -0.16928,0.44114 -0.16928,0.44113 0.4454,0.32569 0.4454,0.32568 0.99662,0.15937 0.99663,0.15936 0.58534,0.54533 0.58534,0.54533 v 0.6364 0.6364 l -0.60404,0.70224 -0.60404,0.70224 z m 13.347,0.11319 h -0.83149 l -0.69714,-0.54837 -0.69714,-0.54837 v -0.79195 -0.79194 l 0.259,-0.48394 0.259,-0.48394 0.83882,-0.29241 0.83881,-0.29242 h 1.01885 1.01886 v -0.65215 -0.65215 l -0.51178,-0.27389 -0.51177,-0.27389 h -0.53625 -0.53626 l -0.47333,0.48584 -0.47332,0.48585 -0.66146,-0.16996 -0.66146,-0.16995 0.83954,-0.84506 0.83955,-0.84505 h 1.32851 1.32852 l 0.65819,0.59531 0.65819,0.59531 0.0909,2.84427 0.0908,2.84427 h -0.57995 -0.57994 l -0.10477,-0.31431 -0.10477,-0.3143 -0.63761,0.4466 -0.63761,0.4466 z m 0.81694,-1.24225 0.52917,-0.14544 0.33073,-0.26459 0.33073,-0.2646 v -0.62906 -0.62906 h -0.94344 -0.94344 l -0.51177,0.27389 -0.51177,0.27389 v 0.52838 0.52839 l 0.59531,0.23682 0.59531,0.23682 z m 15.08125,1.13665 -1.05833,0.12632 -0.65352,-0.34494 -0.65352,-0.34495 -0.60325,-0.89517 -0.60325,-0.89517 v -1.16464 -1.16463 l 0.40135,-0.77613 0.40135,-0.77614 0.77613,-0.40135 0.77614,-0.40135 h 0.82003 0.82002 l 0.7291,0.37703 0.7291,0.37703 0.31043,0.6813 0.31042,0.6813 h -0.75977 -0.75977 l -0.1523,-0.39687 -0.15229,-0.39688 -0.8682,0.004 -0.8682,0.004 -0.29112,0.19438 -0.29112,0.19439 -0.3042,0.57792 -0.30419,0.57791 v 0.77547 0.77546 l 0.54837,0.69714 0.54837,0.69714 h 0.69135 0.69135 l 0.54622,-0.48867 0.54622,-0.48868 0.64376,0.1657 0.64376,0.16569 -0.77606,0.86848 -0.77605,0.86848 z m 6.66828,0.10461 -0.84745,-9.9e-4 -0.81483,-0.49689 -0.81484,-0.49688 -0.34229,-0.82638 -0.3423,-0.82638 0.12425,-1.49832 0.12425,-1.49832 0.83862,-0.7493 0.83862,-0.7493 h 0.90464 0.90464 l 0.66485,0.25277 0.66484,0.25277 0.39734,0.60713 0.39734,0.60712 0.17948,1.12448 0.17948,1.12448 h -2.41506 -2.41507 v 0.48816 0.48815 l 0.48386,0.43789 0.48385,0.43788 h 0.88438 0.88437 l 0.42747,-0.38685 0.42746,-0.38685 0.5735,0.14997 0.5735,0.14997 -0.38853,0.59298 -0.38853,0.59297 -0.6702,0.30536 -0.67019,0.30537 z m -0.0537,-4.23235 h 1.7198 v -0.27661 -0.27661 l -0.64944,-0.64943 -0.64943,-0.64943 h -0.294 -0.29401 l -0.57791,0.30419 -0.57792,0.30419 -0.19439,0.29112 -0.19439,0.29112 -0.004,0.33073 -0.004,0.33073 z m 81.094793,4.06398 -0.926042,0.13807 -0.848039,-0.25343 -0.84804,-0.25344 -0.408731,-0.58354 -0.408731,-0.58355 v -0.20571 -0.20571 h 0.629061 0.629062 l 0.329377,0.39687 0.329377,0.39688 h 1.03424 1.03424 l 0.153589,-0.40025 0.153588,-0.40024 -0.282606,-0.34052 -0.282605,-0.34052 -1.337082,-0.34268 -1.337083,-0.34269 -0.394287,-0.56292 -0.394288,-0.56292 v -0.61462 -0.61461 l 0.649432,-0.64943 0.649432,-0.64943 h 1.276071 1.276072 l 0.555063,0.38878 0.555063,0.38878 0.140497,0.53726 0.140496,0.53726 h -0.604291 -0.604291 l -0.329377,-0.39688 -0.329377,-0.39687 H 61.118706 60.38975 l -0.326581,0.3935 -0.32658,0.39351 0.147986,0.38565 0.147987,0.38564 1.006093,0.18225 1.006093,0.18225 0.695542,0.35173 0.695541,0.35173 0.164354,0.4283 0.164355,0.4283 v 0.5937 0.5937 l -0.595313,0.55386 -0.595312,0.55386 z m 104.510417,-0.0281 -0.66146,0.13012 -0.91967,-0.20975 -0.91968,-0.20974 -0.46939,-0.57967 -0.46938,-0.57967 v -0.23527 -0.23527 h 0.62906 0.62906 l 0.32938,0.39687 0.32937,0.39688 h 0.86125 0.86125 l 0.32937,-0.39688 0.32938,-0.39687 -0.30498,-0.36748 -0.30498,-0.36748 -1.24877,-0.31385 -1.24877,-0.31385 -0.46302,-0.41801 -0.46302,-0.41801 v -0.83892 -0.83891 l 0.63583,-0.59734 0.63584,-0.59733 h 1.24187 1.24187 l 0.63584,0.59733 0.63583,0.59734 v 0.35075 0.35076 h -0.54806 -0.54807 l -0.39687,-0.39688 -0.39688,-0.39687 -0.57641,0.004 -0.57642,0.004 -0.35676,0.22609 -0.35676,0.22609 0.0925,0.48025 0.0925,0.48026 1.19182,0.30403 1.19182,0.30404 0.59068,0.31612 0.59069,0.31613 0.1593,0.63472 0.15931,0.63473 -0.17625,0.55531 -0.17625,0.55531 -0.57525,0.35835 -0.57524,0.35835 z m 6.4423,0.18706 -0.48918,-0.0104 -0.83992,-0.36535 -0.83993,-0.36535 -0.44067,-0.67254 -0.44067,-0.67255 -0.13916,-1.03757 -0.13917,-1.03756 0.31444,-0.95275 0.31443,-0.95276 0.67799,-0.5333 0.67798,-0.5333 1.22109,0.006 1.22109,0.006 0.56435,0.45714 0.56434,0.45714 0.29556,0.57792 0.29555,0.57791 6.2e-4,0.87729 6.2e-4,0.87729 -2.14906,-0.0873 -2.14906,-0.0873 -0.28501,0.28501 -0.28501,0.28501 0.5415,0.72832 0.54151,0.72833 0.9224,0.0795 0.9224,0.0795 0.34048,-0.41026 0.34048,-0.41025 h 0.45267 0.45268 l 0.16708,0.16708 0.16708,0.16708 -0.24613,0.45989 -0.24612,0.45989 -0.90904,0.43136 -0.90903,0.43137 z m -0.0767,-4.22298 h 1.57189 v -0.51416 -0.51417 l -0.58804,-0.41187 -0.58804,-0.41188 h -0.58338 -0.58338 l -0.54477,0.69256 -0.54476,0.69255 0.1443,0.23349 0.1443,0.23348 z m 78.56564,4.21615 -0.92604,-0.0164 -0.55075,-0.2228 -0.55075,-0.2228 -0.70602,-0.83906 -0.70603,-0.83906 v -3.55158 -3.55157 h 0.66146 0.66146 v 3.19535 3.19535 l 0.80435,0.80435 0.80435,0.80435 0.83194,-0.16638 0.83193,-0.16639 0.48038,-0.43474 0.48038,-0.43474 v -3.39857 -3.39858 h 0.79375 0.79375 l -4.1e-4,3.24114 -4.1e-4,3.24115 -0.46261,0.92604 -0.46261,0.92604 -0.92604,0.46261 -0.92604,0.46261 z m -318.55833,-0.2474 h -0.79375 v -4.49791 -4.49792 h 0.79375 0.79375 v 4.49792 4.49791 z m 18.34442,0 h -0.85241 l -0.72641,-0.62483 -0.72641,-0.62483 -0.016,-2.7486 -0.016,-2.74861 h 0.66146 0.66146 l 0.13229,2.59015 0.13229,2.59015 0.39688,0.25007 0.39687,0.25007 0.46302,0.004 0.46302,0.004 0.52917,-0.52917 0.52917,-0.52916 v -2.37829 -2.37829 l 0.66145,0.0547 0.66146,0.0547 v 3.38188 3.38187 h -0.66146 -0.66145 v -0.41188 -0.41187 l -0.58804,0.41187 -0.58804,0.41188 z m 13.0087,0 h -0.66145 v -3.43958 -3.43958 h 0.66145 0.66146 v 0.53708 0.53709 l 0.77184,-0.57064 0.77184,-0.57065 0.91163,0.17103 0.91163,0.17102 0.49934,0.55106 0.49935,0.55106 0.0902,2.75105 0.0902,2.75106 h -0.68555 -0.68554 v -2.19008 -2.19009 l -0.41188,-0.58804 -0.41187,-0.58804 h -0.73774 -0.73774 l -0.43789,0.48386 -0.43788,0.48385 v 2.29427 2.29427 z m 69.122398,5.6e-4 -0.727605,-5.6e-4 v -4.65653 -4.65654 l 2.40314,0.0925 2.403139,0.0925 0.771861,0.86407 0.77186,0.86407 v 1.07451 1.07451 l -0.79375,0.79375 -0.79375,0.79375 v 0.11672 0.11672 l 1.041905,1.71501 1.041906,1.71501 H 38.262987 37.40054 l -0.91136,-1.65364 -0.91136,-1.65365 -1.011235,-0.0835 -1.011234,-0.0835 0.08949,1.73771 0.08949,1.73771 z m 1.942327,-4.76306 h 1.389443 l 0.483854,-0.43788 0.483855,-0.43788 v -0.62045 -0.62045 l -0.543095,-0.5431 -0.543095,-0.54309 -1.242842,0.0801 -1.242843,0.0801 -0.08736,1.52136 -0.08736,1.52135 z m 8.012891,4.7625 h -1.198528 l -0.75394,-0.75394 -0.75394,-0.75394 -0.181195,-0.96585 -0.181194,-0.96585 0.181194,-0.96585 0.181195,-0.96585 0.75394,-0.75394 0.75394,-0.75394 h 1.228372 1.228371 l 0.534172,0.28588 0.534172,0.28588 0.374476,0.89624 0.374476,0.89625 v 0.66996 0.66995 h -2.38125 -2.38125 v 0.4089 0.40891 l 0.649431,0.64943 0.649432,0.64943 h 0.673485 0.673485 l 0.485145,-0.48515 0.485146,-0.48514 0.579334,0.21431 0.579335,0.21431 -0.322616,0.51659 -0.322616,0.51659 -0.622022,0.28341 -0.622022,0.28341 z m 1.554156,-4.01323 0.198438,0.0445 v -0.44219 -0.44218 l -0.437882,-0.48386 -0.437882,-0.48385 h -0.73354 -0.733539 l -0.57454,0.7276 -0.57454,0.72761 1.547524,0.15396 1.547524,0.15396 z m 11.443229,4.01323 h -0.661458 v -3.43958 -3.43958 h 0.661458 0.661459 v 3.43958 3.43958 z m 11.568247,0 h -0.734879 l -0.588038,-0.41188 -0.588038,-0.41187 v -2.49854 -2.49854 H 65.087456 64.55829 v -0.52917 -0.52916 h 0.529166 0.529167 v -0.92605 -0.92604 h 0.661458 0.661459 v 0.92604 0.92605 h 0.661458 0.661458 v 0.52916 0.52917 h -0.672158 -0.672159 l 0.07685,2.18281 0.07685,2.18281 0.595313,0.26118 0.595312,0.26118 v 0.46643 0.46642 z m 2.983837,0 h -0.661459 v -3.43958 -3.43958 h 0.661459 0.661458 v 0.43788 0.43788 l 0.463021,-0.41342 0.463021,-0.41341 0.79375,-0.0906 0.79375,-0.0906 0.08465,0.73729 0.08465,0.73729 -0.666653,-0.16731 -0.666652,-0.16732 -0.674773,0.67477 -0.674773,0.67477 v 2.26099 2.26098 z m 64.172485,0 h -1.51033 l -0.17635,-0.17639 -0.17639,-0.17639 v -4.45381 -4.45382 h 1.86058 1.86058 l 0.89625,0.37447 0.89625,0.37448 0.28588,0.53417 0.28588,0.53417 v 0.64954 0.64954 l -0.50178,0.61967 -0.50178,0.61967 0.63407,0.58763 0.63407,0.58764 v 1.0836 1.0836 l -0.66522,0.6165 -0.66522,0.61651 -0.82306,0.16461 -0.82306,0.16461 z m 0.72385,-1.32291 h 1.26405 l 0.58803,-0.41188 0.58804,-0.41188 v -0.63145 -0.63146 l -0.58804,-0.41187 -0.58803,-0.41188 h -1.26405 -1.26405 v 1.45521 1.45521 z m -0.13229,-3.96875 h 1.13175 l 0.58804,-0.41188 0.58804,-0.41188 v -0.49527 -0.49526 l -0.41578,-0.41577 -0.41577,-0.41578 h -1.30402 -1.30402 v 1.32292 1.32292 z m 6.32984,5.19946 -0.50879,0.0776 -0.16911,-0.16911 -0.16911,-0.16911 v -3.26319 -3.26319 h 0.66146 0.66145 v 0.40479 0.4048 l 0.76118,-0.56276 0.76118,-0.56276 0.49559,0.0945 0.4956,0.0945 0.0846,0.59261 0.0845,0.59261 h -0.65055 -0.65055 l -0.62462,0.50538 -0.62463,0.50538 -0.0497,2.32011 -0.0497,2.32011 z m 6.63333,0.0922 h -1.0126 l -0.58955,-0.41293 -0.58955,-0.41294 -0.39536,-0.76455 -0.39537,-0.76455 v -1.22909 -1.22908 l 0.44228,-0.74872 0.44228,-0.74872 1.03531,-0.46686 1.03532,-0.46686 1.07812,0.38101 1.07813,0.381 0.4939,0.66766 0.4939,0.66767 0.16039,0.98842 0.1604,0.98842 -0.45592,1.19382 -0.45593,1.19382 -0.75657,0.39124 -0.75658,0.39124 z m 0.1134,-1.05833 h 0.37859 l 0.47548,-0.25447 0.47549,-0.25447 0.33114,-0.79946 0.33114,-0.79945 -0.17312,-0.92285 -0.17313,-0.92284 -0.57747,-0.40448 -0.57748,-0.40448 h -0.60259 -0.60258 l -0.52917,0.52917 -0.52917,0.52916 v 1.30372 1.30371 l 0.69714,0.54837 0.69714,0.54837 z m 6.53841,1.05833 h -0.6027 l -0.13262,-0.46302 -0.13261,-0.46302 -0.81126,-2.67516 -0.81125,-2.67516 v -0.3014 -0.3014 h 0.63184 0.63185 l 0.58839,2.38125 0.58838,2.38125 h 0.0985 0.0985 l 0.71282,-2.38125 0.71282,-2.38125 h 0.60203 0.60204 l 0.71977,2.39835 0.71977,2.39835 0.18674,-0.34783 0.18673,-0.34783 0.47705,-2.05052 0.47704,-2.05052 h 0.71089 0.71088 l -0.914,3.10885 -0.91401,3.10885 -0.10866,0.34929 -0.10866,0.34929 -0.57379,-0.0847 -0.5738,-0.0847 -0.7452,-2.22181 -0.7452,-2.2218 -0.11779,-0.11779 -0.11778,-0.11779 -0.72199,2.40574 -0.72199,2.40574 z m 22.77726,0 h -0.66145 v -3.43958 -3.43958 h 0.66145 0.66146 v 0.41607 0.41608 l 0.69714,-0.54837 0.69714,-0.54837 h 0.49349 0.49348 v 0.75706 0.75706 l -0.63556,-0.12149 -0.63557,-0.1215 -0.55506,0.55506 -0.55506,0.55506 v 2.38125 2.38125 z m 79.83802,0 h -0.7276 l 0.0165,-4.43177 0.0165,-4.43177 0.71114,-0.0837 0.71114,-0.0837 v 4.51549 4.51549 z m -201.569435,-7.9375 h -0.355169 l -0.263641,-0.49261 -0.263641,-0.49262 0.348363,-0.47642 0.348362,-0.47641 0.441137,0.16928 0.441137,0.16928 0.155891,0.40625 0.155891,0.40624 -0.326581,0.39351 -0.32658,0.3935 z m -98.269615,-9.07789 -33.99896,0.0502 -1.2779,-0.39513 -1.2779,-0.39513 -1.10869,-1.11031 -1.10868,-1.11031 -0.3254,-1.08903 -0.32539,-1.08903 v -36.31878 -36.31882 l 0.302,-1.00799 0.30201,-1.008 0.75601,-0.91717 0.75601,-0.91717 1.25709,-0.61907 1.25709,-0.61907 33.60208,-0.0725 33.60208,-0.0725 1.32292,0.28166 1.32292,0.28166 1.00891,0.69827 1.00892,0.69828 0.71087,1.2092 0.71088,1.20919 0.075,17.92552 0.0749,17.92552 h 4.09224 4.09224 v -2.91042 -2.91041 H 4.6407 4.78347 l 3.97075,3.48589 3.97076,3.4859 -0.47551,0.43752 -0.4755,0.43753 -3.48066,2.95574 -3.48066,2.95575 H 4.65529 4.49792 v -2.91042 -2.91041 l -3.77031,0.004 -3.77031,0.004 -0.32184,0.20451 -0.32185,0.20451 -0.075,17.98154 -0.075,17.98154 -0.4553,0.83182 -0.45529,0.83182 -0.85963,0.85963 -0.85962,0.85962 -0.93404,0.42522 -0.93404,0.42523 z m -0.52917,-1.52741 33.46979,-0.001 1.0097,-0.3601 1.0097,-0.36011 0.54902,-0.48817 0.54902,-0.48818 0.48599,-1.05834 0.48599,-1.05833 v -36.11588 -36.11563 l -0.48599,-1.05833 -0.48599,-1.05833 -0.54902,-0.48818 -0.54902,-0.48818 -1.0097,-0.3601 -1.0097,-0.36011 -33.20521,-0.0101 -33.20521,-0.0101 -0.98397,0.27328 -0.98397,0.27327 -0.83794,0.70509 -0.83794,0.70508 -0.3609,0.86375 -0.3609,0.86375 v 36.40184 36.40185 l 0.37174,0.71447 0.37173,0.71446 0.62234,0.58107 0.62234,0.58107 0.92416,0.40076 0.92415,0.40077 z m 4.14773,-14.26553 h -0.0908 l -0.17639,-0.17639 -0.17638,-0.17639 v -3.68603 -3.68602 l -11.08988,0.0921 -11.08987,0.0921 -0.75023,-0.54798 -0.75023,-0.54797 -0.46261,-0.90724 -0.46261,-0.90723 v -16.66875 -16.66875 l 0.46261,-0.90723 0.46261,-0.90724 0.74683,-0.54797 0.74682,-0.54798 17.70427,-0.0734 17.70427,-0.0734 1.08421,0.55313 1.08421,0.55312 0.53916,1.21885 0.53915,1.21886 -0.19611,16.47334 -0.1961,16.47335 -0.49521,0.8143 -0.49521,0.81431 -0.86231,0.52576 -0.86232,0.52576 -1.65364,9.9e-4 -1.65365,9.8e-4 v 3.53948 3.53948 l -0.34601,0.28716 -0.34601,0.28716 -2.21843,-1.45122 -2.21844,-1.45123 -2.19546,1.46104 -2.19546,1.46105 z m 2.00383,-4.39504 0.33073,-0.19293 1.13309,-0.76736 1.13309,-0.76736 1.31492,0.94468 1.31492,0.94467 h 0.13168 0.13168 v -3.03615 -3.03616 l -0.67869,0.25803 -0.67868,0.25804 h -1.55305 -1.55305 l -0.67869,-0.25804 -0.67868,-0.25803 v 3.05177 3.05178 z m -21.62969,-5.01161 1.32292,-0.11375 8.92969,-0.002 8.92969,-0.002 v -1.14962 -1.14962 l -0.50471,-0.45674 -0.5047,-0.45675 -0.59329,-1.3702 -0.59329,-1.3702 -0.0232,-1.46747 -0.0232,-1.46746 0.8811,-1.78977 0.8811,-1.78976 1.0831,-0.7846 1.0831,-0.78459 1.44211,-0.41923 1.44211,-0.41923 1.32513,0.17578 1.32513,0.17579 1.0126,0.51658 1.01259,0.51659 0.89999,0.7902 0.89998,0.7902 0.61816,1.39099 0.61815,1.39098 -0.0123,1.7198 -0.0123,1.71979 -0.58957,1.23129 -0.58956,1.2313 -0.512,0.46336 -0.51201,0.46335 v 1.14962 1.14962 h 1.63281 1.63282 l 0.48385,-0.43788 0.48386,-0.43789 v -16.45976 -16.45977 l -0.54837,-0.69714 -0.54837,-0.69714 h -17.31101 -17.311 l -0.52917,0.52916 -0.52917,0.52917 v 16.62774 16.62774 l 0.46302,0.41057 0.46302,0.41057 0.52917,0.14337 0.52917,0.14337 z M -44.45,155.03256 h -10.58333 v -0.92605 -0.92604 H -44.45 -33.86667 v 0.92604 0.92605 z m 10.18646,18.76119 0.52916,0.0213 1.01092,-0.28071 1.01091,-0.28072 1.01241,-0.91465 1.01241,-0.91465 0.42407,-0.89366 0.42408,-0.89367 v -1.16072 -1.16072 l -0.59532,-1.177 -0.59531,-1.17701 -1.09461,-0.76027 -1.09461,-0.76028 -1.18912,-0.13403 -1.18912,-0.13403 -0.98011,0.32346 -0.98011,0.32347 -0.94276,0.82775 -0.94276,0.82775 -0.35746,0.85554 -0.35746,0.85553 v 1.34195 1.34196 l 0.52672,1.03246 0.52672,1.03247 0.91128,0.69506 0.91128,0.69507 0.74481,0.22356 0.74481,0.22356 z m 90.643883,27.51381 -35.610553,-0.0271 -0.79375,-0.19323 -0.79375,-0.19324 -0.82838,-0.43164 -0.82838,-0.43163 -0.73307,-0.8694 -0.73307,-0.8694 -0.35678,-0.8514 -0.35678,-0.85139 0.006,-36.85173 0.006,-36.85173 0.49,-1.05833 0.48999,-1.05833 0.76097,-0.71357 0.76096,-0.71357 1.05834,-0.47706 1.05833,-0.47705 35.718749,-0.071 35.71875,-0.071 1.351977,0.28049 1.351978,0.28049 1.076066,0.79135 1.076066,0.79135 0.68081,1.36621 0.680811,1.36621 v 17.67513 17.67513 h 4.233333 4.23333 v -3.05724 -3.05724 l 4.10553,3.62602 4.10553,3.62601 -0.0706,0.0598 -0.0706,0.0598 -3.96875,3.36106 -3.96875,3.36106 -0.0748,-2.93125 -0.0748,-2.93125 h -2.59835 -2.59836 l -1.626309,0.16999 -1.626312,0.16998 -0.0026,17.75554 -0.0026,17.75554 -0.630401,1.35388 -0.630402,1.35388 -0.942584,0.71894 -0.942584,0.71895 -1.244605,0.37457 -1.244605,0.37457 z m 0.108196,-1.58712 35.71875,0.0151 1.058333,-0.48845 1.058333,-0.48846 0.577688,-0.63021 0.577688,-0.63022 0.282208,-0.74483 0.282208,-0.74483 v -36.23921 -36.23918 l -0.360899,-0.86376 -0.360898,-0.86375 -0.837943,-0.70508 -0.837943,-0.70508 -0.983971,-0.27328 -0.983971,-0.27327 H 56.488539 21.298956 l -1.025679,0.28479 -1.025677,0.28479 -1.09099,1.01764 -1.09099,1.01763 -0.0698,36.86224 -0.0698,36.86224 0.28595,0.69287 0.28595,0.69287 0.84219,0.796 0.84218,0.79601 0.79375,0.27618 0.79375,0.27617 z m 0.132292,-17.73448 -2.248959,-0.0156 -1.719791,-0.3514 -1.719792,-0.3514 -1.134378,-0.40924 -1.134379,-0.40925 -2.172913,-1.12392 -2.172913,-1.12393 -2.516018,-2.52234 -2.516017,-2.52234 -1.078726,-1.85208 -1.078726,-1.85208 -0.684206,-1.71979 -0.684205,-1.7198 -0.417405,-2.21204 -0.417405,-2.21204 v -1.92591 -1.92592 l 0.415117,-2.18832 0.415117,-2.18832 0.654473,-1.74351 0.654473,-1.74352 1.071032,-1.80637 1.071033,-1.80637 1.755306,-1.86072 1.755307,-1.86072 1.636435,-1.16773 1.636436,-1.16774 2.02269,-0.93454 2.022691,-0.93454 2.300674,-0.50876 2.300674,-0.50876 2.159537,-0.006 2.159538,-0.006 1.942551,0.37167 1.942551,0.37167 1.564843,0.55 1.564842,0.55 1.976951,1.12885 1.976952,1.12885 1.827673,1.69018 1.827673,1.69018 1.184104,1.65937 1.184103,1.65937 0.921596,1.99468 0.921597,1.99467 0.564167,2.32869 0.564167,2.32869 -0.0094,3.175 -0.0094,3.175 -0.560695,2.11667 -0.560695,2.11666 -0.929054,1.9609 -0.929054,1.96089 -1.158505,1.6235 -1.158505,1.6235 -1.736606,1.62451 -1.736607,1.62451 -1.794024,1.06369 -1.794023,1.0637 -1.852084,0.70108 -1.852083,0.70107 -1.984375,0.35929 -1.984375,0.35928 z m -1.328828,-2.61174 h 0.535078 v -4.89479 -4.89479 h -3.457413 -3.457413 l 0.180819,0.59531 0.180818,0.59531 0.767214,2.01144 0.767213,2.01145 0.796299,1.20219 0.7963,1.20219 1.178003,1.08585 1.178003,1.08584 z m 3.061759,0 h 0.410014 l 0.714465,-0.37507 0.714465,-0.37506 0.961373,-1.014 0.961374,-1.01399 0.731533,-1.18142 0.731534,-1.18141 0.754488,-2.06735 0.754489,-2.06735 v -0.25696 -0.25697 h -3.571875 -3.571875 v 4.89479 4.89479 z m 5.048056,-0.52917 h 0.191825 l 2.224055,-1.0765 2.224055,-1.0765 2.07538,-1.98281 2.07538,-1.98281 1.077701,-1.3969 1.0777,-1.3969 v -0.17399 -0.174 h -3.391265 -3.391264 l -0.473946,1.52135 -0.473945,1.52136 -0.870863,1.89829 -0.870864,1.89829 -0.832887,1.21056 -0.832888,1.21056 z m -12.90903,-0.27086 0.354249,0.006 -0.697625,-0.82908 -0.697624,-0.82908 -0.560964,-1.08915 -0.560964,-1.08915 -0.857241,-2.51354 -0.857241,-2.51354 -3.331649,-0.074 -3.331648,-0.074 v 0.15867 0.15867 l 0.845933,1.2383 0.845933,1.2383 1.465666,1.5448 1.465667,1.5448 1.281647,0.94082 1.281648,0.94081 1.499982,0.61696 1.499982,0.61695 z m -8.10223,-11.10622 h 3.718866 l -0.160309,-1.16958 -0.160309,-1.16958 -0.178278,-2.13771 -0.178279,-2.13771 h -4.195292 -4.195293 l 0.0046,0.19844 0.0046,0.19843 0.391134,1.84651 0.391134,1.8465 0.419285,1.26235 0.419286,1.26235 z m 9.750186,0 h 3.686337 v -3.30729 -3.30729 h -4.101042 -4.101041 v 0.7746 0.77461 l 0.278192,2.06966 0.278191,2.06967 0.136513,0.46302 0.136513,0.46302 z m 9.705608,-0.0591 3.902604,-0.0732 0.313519,-2.11666 0.31352,-2.11667 0.01721,-1.12448 0.01721,-1.12448 h -4.233333 -4.233334 v 3.31437 3.31436 z m 9.918536,0.0591 h 3.836211 l 0.411311,-1.52135 0.41131,-1.52136 0.13489,-0.79375 0.134891,-0.79375 0.162112,-0.99218 0.162112,-0.99219 h -4.205703 -4.205703 l -0.171,2.3151 -0.171001,2.31511 -0.167821,0.99218 -0.16782,0.99219 z m -30.42025,-8.73125 h 4.088046 l 0.184302,-2.71198 0.184302,-2.71198 0.137477,-0.55821 0.137476,-0.55821 -3.61157,0.0626 -3.611571,0.0626 -0.223757,0.23103 -0.223756,0.23103 -0.395189,1.5875 -0.39519,1.5875 -0.179308,1.38906 -0.179308,1.38906 z m 10.351582,0 h 4.147148 l -0.07429,-3.19383 -0.07429,-3.19383 -3.701105,-0.009 -3.701105,-0.009 -0.189434,0.88798 -0.189434,0.88797 -0.182319,2.31511 -0.182319,2.3151 z m 10.518823,0 h 4.271296 l -0.181514,-2.40447 -0.181514,-2.40448 -0.154105,-0.77052 -0.154105,-0.77053 -0.959114,-0.0146 -0.959115,-0.0146 -1.719791,-0.0163 -1.719792,-0.0163 -1.256771,0.0309 -1.256771,0.0309 v 3.175 3.175 z m 10.610104,0 h 4.218256 l -0.187648,-1.36436 -0.187649,-1.36437 -0.490144,-1.71395 -0.490145,-1.71394 -0.117729,-0.11773 -0.11773,-0.11773 -3.750401,-0.0618 -3.750401,-0.0618 0.164537,0.81043 0.164536,0.81042 0.163131,2.4474 0.163131,2.44739 z m -29.750496,-8.73125 h 3.382262 l 0.330378,-1.23524 0.330378,-1.23525 0.781517,-1.87729 0.781518,-1.87729 1.039924,-1.58149 1.039924,-1.58149 -0.09813,-0.0981 -0.09813,-0.0981 -2.329547,1.12406 -2.329547,1.12406 -2.265176,2.27903 -2.265177,2.27903 -0.841232,1.38906 -0.841232,1.38906 z m 9.194816,0 h 3.557614 v -5.02708 -5.02708 h -0.277723 -0.277722 l -0.746204,0.38587 -0.746204,0.38588 -1.186433,1.3196 -1.186434,1.3196 -0.944144,1.93254 -0.944144,1.93255 -0.40311,1.38906 -0.40311,1.38906 z m 9.246155,0 h 3.571875 v -0.26955 -0.26955 l -0.658668,-1.88526 -0.658668,-1.88525 -0.711898,-1.21476 -0.711898,-1.21476 -1.200792,-1.28375 -1.200793,-1.28374 -0.722794,-0.37377 -0.722794,-0.37377 H 58.22147 57.943747 v 5.02708 5.02708 z m 9.312496,0 h 3.255213 v -0.1672 -0.16721 l -0.571386,-0.95727 -0.571386,-0.95728 -1.077016,-1.42629 -1.077016,-1.4263 -1.717349,-1.30007 -1.717349,-1.30006 -1.595187,-0.75036 -1.595186,-0.75036 -0.587818,-0.17675 -0.587818,-0.17675 0.946756,1.40452 0.946757,1.40451 0.732245,1.45521 0.732246,1.45521 0.61454,1.91822 0.614541,1.91823 z m 84.765002,51.30209 -33.48792,-0.0271 -0.79375,-0.19323 -0.79375,-0.19324 -0.83608,-0.43562 -0.83608,-0.43562 -0.823,-0.99771 -0.823,-0.9977 -0.25767,-0.92604 -0.25767,-0.92605 10e-4,-36.5125 0.001,-36.51249 0.63939,-1.3733 0.6394,-1.37329 1.09121,-0.79047 1.09121,-0.79047 1.32254,-0.28363 1.32254,-0.28363 h 33.15014 33.15013 l 1.2446,0.37457 1.24461,0.37457 0.94258,0.71894 0.94259,0.71895 0.6304,1.35388 0.6304,1.35388 0.003,17.66093 0.003,17.66094 h 4.22494 4.22493 l 0.0745,-3.00164 0.0745,-3.00164 4.01572,3.46466 4.01571,3.46466 -0.0541,0.21989 -0.0541,0.21989 -3.9616,3.37725 -3.9616,3.37724 -0.0745,-3.00182 -0.0745,-3.00182 h -1.80304 -1.80304 l -2.42189,0.17191 -2.4219,0.17191 v 17.59062 17.59062 l -0.32539,1.08903 -0.3254,1.08903 -1.10533,1.10696 -1.10533,1.10696 -1.39542,0.41439 -1.39542,0.4144 z m 0.008,-1.58428 33.49645,0.0239 0.89938,-0.30058 0.89938,-0.30059 0.76019,-0.6916 0.76019,-0.69161 0.36429,-0.85139 0.36429,-0.8514 v -36.26495 -36.26491 l -0.3609,-0.86376 -0.3609,-0.86375 -0.83794,-0.70508 -0.83794,-0.70508 -0.98398,-0.27328 -0.98397,-0.27327 h -33.07291 -33.07292 l -0.98397,0.27327 -0.98397,0.27328 -0.83794,0.70508 -0.83795,0.70508 -0.3609,0.86375 -0.36089,0.86376 9.9e-4,36.45485 9.8e-4,36.45485 0.54896,0.90045 0.54895,0.90046 0.57454,0.48527 0.57453,0.48526 0.79375,0.24406 0.79375,0.24407 z m 0.23796,-16.38031 H 144.7457 l -0.2739,-0.51177 -0.27389,-0.51177 v -0.63785 -0.63784 l 0.46898,-0.42442 0.46898,-0.42443 1.83004,-0.0796 1.83004,-0.0796 0.47085,-2.11666 0.47085,-2.11667 0.008,-0.32096 0.008,-0.32096 -9.25563,-0.0759 -9.25571,-0.0759 -0.86469,-0.86503 -0.86468,-0.86502 V 156.934 140.58941 l 0.4836,-0.73801 0.4836,-0.738 0.89696,-0.37478 0.89697,-0.37477 23.88714,0.004 23.88714,0.004 0.66146,0.33418 0.66146,0.33418 0.3366,1.02361 0.33661,1.02361 -0.072,16.22721 -0.072,16.2272 -0.73332,0.7335 -0.73332,0.7335 -9.2547,0.0759 -9.2547,0.0759 v 0.15592 0.15591 l 0.55121,2.34786 0.55121,2.34785 h 1.78903 1.78903 l 0.43788,0.48386 0.43789,0.48385 v 0.59188 0.59187 l -0.2739,0.51177 -0.27389,0.51177 z m -0.005,-15.08125 h 24.35104 l -0.0685,-13.82448 -0.0685,-13.82447 -23.84509,-0.0676 -23.84508,-0.0676 -0.36429,0.43873 -0.36429,0.43875 -0.0732,13.45328 -0.0732,13.45329 z m 96.79113,33.04557 -33.68335,-0.0273 -0.96881,-0.25799 -0.96881,-0.258 -1.11765,-0.95666 -1.11765,-0.95667 -0.48742,-1.0731 -0.48742,-1.0731 -0.006,-36.89198 -0.006,-36.89199 0.54714,-1.13024 0.54714,-1.13024 0.90434,-0.79402 0.90434,-0.79402 1.37467,-0.40823 1.37467,-0.40823 h 33.37374 33.37375 l 1.43708,0.42396 1.4371,0.42396 1.10881,1.15183 1.10881,1.15183 0.27877,1.0039 0.27878,1.00389 -0.004,36.64479 -0.004,36.64479 -0.48742,1.0731 -0.48741,1.0731 -1.10976,0.94991 -1.10976,0.94991 -1.16001,0.2921 -1.16001,0.29209 z m 0.20784,-1.56036 33.8912,2.1e-4 1.16609,-0.61516 1.1661,-0.61516 0.59096,-1.03849 0.59096,-1.03848 0.004,-36.59179 0.004,-36.59178 -0.38737,-0.7491 -0.38737,-0.74909 -0.81147,-0.68281 -0.81147,-0.6828 -0.98397,-0.27328 -0.98397,-0.27327 h -33.07292 -33.07291 l -1.02568,0.28479 -1.02568,0.28479 -1.09099,1.01764 -1.09099,1.01763 -0.0689,37.10967 -0.0689,37.10967 0.64258,0.971 0.64257,0.97099 1.1461,0.56731 1.1461,0.5673 z m 0.0274,-16.93333 -0.58108,-2.1e-4 -1.64697,-0.77915 -1.64697,-0.77915 -1.66032,-1.11712 -1.66032,-1.11712 -1.98438,-1.6443 -1.98437,-1.64431 -1.08438,-1.28786 -1.08438,-1.28787 -1.21967,-1.8187 -1.21968,-1.8187 -0.82067,-1.97134 -0.82067,-1.97134 -0.55387,-2.03079 -0.55386,-2.03079 -0.11829,-7.74749 -0.11829,-7.74749 0.16306,-0.64968 0.16306,-0.64969 0.59111,-0.38112 0.59111,-0.38113 2.64584,-0.4459 2.64583,-0.4459 1.78795,-0.64457 1.78796,-0.64457 2.18079,-1.01312 2.1808,-1.01312 1.5875,-0.97708 1.5875,-0.97709 0.9396,0.11893 0.93961,0.11894 2.39901,1.35236 2.39901,1.35237 2.71607,1.0897 2.71608,1.08969 2.14739,0.38556 2.1474,0.38557 0.99064,0.25747 0.99065,0.25747 0.4184,0.80909 0.41839,0.80909 -0.10358,8.11044 -0.10359,8.11043 -0.58387,2.11667 -0.58388,2.11667 -1.161,2.38125 -1.161,2.38125 -1.3083,1.71979 -1.3083,1.71979 -1.95737,1.85208 -1.95737,1.85209 -1.83972,1.30917 -1.83973,1.30918 -1.9439,1.00593 -1.94391,1.00592 z m 0.10788,-2.48797 0.68895,-0.12897 1.6923,-0.9845 1.69229,-0.9845 1.5875,-1.2043 1.5875,-1.20429 1.40047,-1.31429 1.40046,-1.3143 1.30012,-1.75377 1.30013,-1.75377 1.06704,-2.23196 1.06703,-2.23196 0.56459,-2.11667 0.56459,-2.11667 0.13079,-7.42884 0.13079,-7.42885 -2.12984,-0.3012 -2.12985,-0.3012 -2.20087,-0.72122 -2.20086,-0.72123 -3.82549,-1.95662 -3.82548,-1.95663 -3.05368,1.57367 -3.05369,1.57368 -2.11666,0.81933 -2.11667,0.81934 -1.5875,0.38593 -1.5875,0.38592 -1.38906,0.17931 -1.38907,0.17931 v 7.21729 7.21728 l 0.63468,2.50195 0.63467,2.50195 0.85427,1.69916 0.85427,1.69917 0.95846,1.45004 0.95845,1.45004 1.55665,1.66412 1.55666,1.66413 1.69139,1.34588 1.69138,1.34587 2.17592,1.30567 2.17591,1.30568 z m -1.71298,-13.65141 h -0.0567 l -3.47556,-3.24114 -3.47556,-3.24115 0.69782,-0.73367 0.69782,-0.73368 2.52911,2.51961 2.5291,2.51962 h 0.14709 0.14709 l 3.13057,-3.37344 3.13057,-3.37344 1.72117,-1.80436 1.72117,-1.80437 0.77589,0.77588 0.77589,0.77589 -5.46935,5.85713 -5.46934,5.85712 z M 92.736428,76.02441 91.413512,76.155131 90.29198,75.891358 89.170448,75.627586 88.241459,74.751436 87.31247,73.875287 v -0.564071 -0.564072 h 1.086285 1.086285 l 0.786098,0.661459 0.786099,0.661458 h 1.261609 1.26161 l 0.461073,-0.509481 0.461074,-0.50948 -0.08934,-0.482707 -0.08934,-0.482707 -1.455208,-0.437111 -1.455208,-0.437111 -1.156815,-0.310802 -1.156814,-0.310801 -0.629123,-0.629124 -0.629123,-0.629123 v -1.299261 -1.299262 l 0.532011,-0.676343 0.532012,-0.676343 1.189477,-0.454266 1.189477,-0.454265 1.542901,0.139905 1.542901,0.139906 0.832173,0.430333 0.832174,0.430334 0.401353,0.776132 0.401354,0.776132 v 0.277723 0.277722 h -1.149618 -1.149618 l -0.489446,-0.540831 -0.489446,-0.540832 -1.442403,0.07781 -1.442404,0.07781 -0.290617,0.463021 -0.290616,0.46302 0.282132,0.447273 0.282133,0.447273 0.642556,0.186387 0.642555,0.186386 1.851841,0.430445 1.851841,0.430444 0.661701,0.661701 0.661701,0.661701 v 1.16521 1.165209 l -0.546242,0.747007 -0.546241,0.747006 -0.908967,0.448793 -0.908967,0.448792 z m 38.232322,-0.0011 -1.19063,0.148315 -1.15705,-0.371043 -1.15705,-0.371043 -0.7848,-0.745902 -0.7848,-0.745901 -0.42463,-0.79375 -0.42463,-0.79375 -0.0148,-2.004628 -0.0148,-2.004628 0.79375,-1.282121 0.79375,-1.282121 1.16609,-0.615855 1.1661,-0.615855 h 1.35753 1.35753 l 1.177,0.595313 1.17701,0.595312 0.73023,1.058334 0.73024,1.058333 0.16633,1.23614 0.16634,1.236141 -0.17619,1.174885 -0.17618,1.174885 -0.69402,1.070325 -0.69401,1.070325 -0.94887,0.529987 -0.94888,0.529987 z m -0.58218,-1.959307 0.34387,0.006 0.77613,-0.401354 0.77614,-0.401353 0.40135,-0.776132 0.40135,-0.776133 V 70.36589 69.016695 l -0.39536,-0.76455 -0.39537,-0.764549 -0.58954,-0.412937 -0.58955,-0.412936 h -0.8083 -0.8083 l -0.61599,0.431454 -0.61598,0.431454 -0.36893,0.882965 -0.36893,0.882964 v 0.929186 0.929185 l 0.41611,1.039955 0.41611,1.039955 0.84066,0.414583 0.84066,0.414583 z m -70.590739,1.858108 h -1.322917 v -6.349999 -6.35 h -2.38125 -2.38125 V 62.03152 60.840895 h 6.085417 6.085416 v 1.190625 1.190625 h -2.38125 -2.38125 v 6.35 6.349999 z m 8.532812,1.15e-4 -1.256771,1.14e-4 v -5.556212 -5.556212 l 1.256771,-1.52e-4 1.256771,-1.52e-4 v 0.843251 0.843251 l 0.727604,-0.694127 0.727604,-0.694127 0.744829,-0.281416 0.744828,-0.281416 h 0.644234 0.644234 v 1.190625 1.190625 h -0.939181 -0.93918 l -0.801455,0.414448 -0.801454,0.414448 -0.376031,0.899971 -0.376032,0.89997 v 3.183498 3.183498 z m 10.728764,-0.0011 -1.137618,-9.89e-4 -0.847051,-0.516477 -0.847051,-0.516477 -0.40972,-0.792312 -0.40972,-0.792311 v -4.246472 -4.246472 h 1.190625 1.190625 l 0.01493,3.241145 0.01493,3.241146 0.315796,0.922938 0.315795,0.922938 0.737027,0.352786 0.737026,0.352786 0.781104,-0.171559 0.781103,-0.171559 0.532391,-0.676826 0.532391,-0.676825 v -3.668485 -3.668485 h 1.322917 1.322916 v 5.55625 5.556249 h -1.190625 -1.190625 v -0.79375 -0.79375 H 82.582387 82.3502 l -0.343855,0.414321 -0.343856,0.41432 -0.733735,0.37943 -0.733736,0.379429 z m 23.777723,-0.0094 -0.83826,-0.01036 -0.80016,-0.348631 -0.80017,-0.34863 -0.32431,-0.711796 -0.324317,-0.711796 v -3.427134 -3.427134 h -0.79375 -0.79375 v -1.058333 -1.058333 h 0.79375 0.79375 v -1.455208 -1.455209 h 1.322917 1.32292 v 1.455209 1.455208 l 1.12448,-1.58e-4 1.12447,-1.59e-4 -0.0279,0.992346 -0.0279,0.992346 h -1.0966 -1.09661 l 5e-5,3.188229 4e-5,3.188229 0.3175,0.3175 0.3175,0.3175 h 0.74084 0.74083 v 0.897734 0.897734 l -0.41852,0.160599 -0.41851,0.160599 z m 11.59091,0.01036 h -1.18438 v -4.497917 -4.497917 h -0.92604 -0.92604 v -1.058333 -1.058333 h 0.92604 0.92604 v -1.175871 -1.175871 l 0.59532,-0.690064 0.59531,-0.690064 1.05833,-0.244096 1.05833,-0.244096 0.8599,0.155102 0.8599,0.155101 v 0.896596 0.896596 h -0.91104 -0.91104 l -0.41188,0.588038 -0.41188,0.588038 v 0.470296 0.470295 h 1.26377 1.26376 l -0.10266,1.076434 -0.10265,1.076435 -1.09496,-0.07929 -1.09497,-0.07929 -0.0724,4.559102 -0.0724,4.559102 z m 7.01771,0 h -1.32292 v -7.540624 -7.540625 h 1.32292 1.32291 v 7.540625 7.540624 z m 19.7749,-0.05154 -1.25947,0.08075 -0.12766,-0.345336 -0.12766,-0.345337 -1.45907,-4.894791 -1.45907,-4.894792 -0.12206,-0.330729 -0.12206,-0.330729 h 1.39979 1.39979 l 0.90615,3.836458 0.90616,3.836458 h 0.15149 0.15149 l 1.06126,-3.770312 1.06126,-3.770313 1.21278,-0.07971 1.21279,-0.07972 0.40397,1.402631 0.40398,1.402632 0.72891,2.641005 0.7289,2.641005 0.46312,-1.560054 0.46312,-1.560054 0.59546,-2.470013 0.59546,-2.470014 h 1.27084 1.27084 l -0.005,0.06615 -0.005,0.06615 -1.6581,5.423959 -1.6581,5.423958 -1.23163,0.08 -1.23163,0.08 -0.79649,-2.593545 -0.79648,-2.593546 -0.33236,-1.25677 -0.33237,-1.256771 -0.14356,0.0037 -0.14356,0.0037 -1.05833,3.766639 -1.05834,3.766639 z"
       id="path1" />
  </g>
</svg>
